<svg width="19" height="19" viewBox="0 0 19 19" fill="none" xmlns="http://www.w3.org/2000/svg">
<path d="M9.8 18.812C9.416 18.812 9.128 18.704 8.936 18.488C8.744 18.272 8.648 17.984 8.648 17.624V10.784H1.916C1.556 10.784 1.268 10.688 1.052 10.496C0.86 10.304 0.764 10.028 0.764 9.668C0.764 9.308 0.86 9.032 1.052 8.84C1.268 8.648 1.556 8.552 1.916 8.552H8.648V1.928C8.648 1.544 8.744 1.256 8.936 1.064C9.128 0.847999 9.416 0.739999 9.8 0.739999C10.184 0.739999 10.472 0.847999 10.664 1.064C10.856 1.256 10.952 1.544 10.952 1.928V8.552H17.684C18.044 8.552 18.32 8.648 18.512 8.84C18.728 9.032 18.836 9.308 18.836 9.668C18.836 10.028 18.728 10.304 18.512 10.496C18.32 10.688 18.044 10.784 17.684 10.784H10.952V17.624C10.952 17.984 10.856 18.272 10.664 18.488C10.472 18.704 10.184 18.812 9.8 18.812Z" fill="black"/>
</svg>
